solid Bushings
facet normal 0 -1 0
 outer loop
  vertex 110 5 20
  vertex 90 5 20
  vertex 110 5 0
 endloop
endfacet
facet normal 0 -1 0
 outer loop
  vertex 110 5 0
  vertex 90 5 20
  vertex 90 5 0
 endloop
endfacet
facet normal 0 1 0
 outer loop
  vertex 90 -5 20
  vertex 110 -5 20
  vertex 90 -5 0
 endloop
endfacet
facet normal 0 1 0
 outer loop
  vertex 90 -5 0
  vertex 110 -5 20
  vertex 110 -5 0
 endloop
endfacet
facet normal -0.129775 -0.991543 0
 outer loop
  vertex 110 5 0
  vertex 111.913 4.6194 0
  vertex 110 5 20
 endloop
endfacet
facet normal -0.259551 -0.96573 0
 outer loop
  vertex 110 5 20
  vertex 111.913 4.6194 0
  vertex 111.913 4.6194 20
 endloop
endfacet
facet normal -0.499344 -0.866404 0
 outer loop
  vertex 111.913 4.6194 20
  vertex 111.913 4.6194 0
  vertex 113.536 3.53553 0
 endloop
endfacet
facet normal -0.792892 -0.609362 0
 outer loop
  vertex 113.536 3.53553 20
  vertex 113.536 3.53553 0
  vertex 114.619 1.91342 0
 endloop
endfacet
facet normal -0.96573 -0.259551 0
 outer loop
  vertex 114.619 1.91342 20
  vertex 114.619 1.91342 0
  vertex 115 0 0
 endloop
endfacet
facet normal -0.991543 0.129775 0
 outer loop
  vertex 115 0 20
  vertex 115 0 0
  vertex 114.619 -1.91342 0
 endloop
endfacet
facet normal -0.866404 0.499344 0
 outer loop
  vertex 114.619 -1.91342 20
  vertex 114.619 -1.91342 0
  vertex 113.536 -3.53553 0
 endloop
endfacet
facet normal -0.609362 0.792892 0
 outer loop
  vertex 113.536 -3.53553 20
  vertex 113.536 -3.53553 0
  vertex 111.913 -4.6194 0
 endloop
endfacet
facet normal -0.259551 0.96573 0
 outer loop
  vertex 111.913 -4.6194 20
  vertex 111.913 -4.6194 0
  vertex 110 -5 0
 endloop
endfacet
facet normal -0.129775 0.991543 0
 outer loop
  vertex 110 -5 20
  vertex 111.913 -4.6194 20
  vertex 110 -5 0
 endloop
endfacet
facet normal -0.499344 0.866404 0
 outer loop
  vertex 111.913 -4.6194 20
  vertex 113.536 -3.53553 20
  vertex 111.913 -4.6194 0
 endloop
endfacet
facet normal -0.792892 0.609362 0
 outer loop
  vertex 113.536 -3.53553 20
  vertex 114.619 -1.91342 20
  vertex 113.536 -3.53553 0
 endloop
endfacet
facet normal -0.96573 0.259551 0
 outer loop
  vertex 114.619 -1.91342 20
  vertex 115 0 20
  vertex 114.619 -1.91342 0
 endloop
endfacet
facet normal -0.991543 -0.129775 0
 outer loop
  vertex 115 0 20
  vertex 114.619 1.91342 20
  vertex 115 0 0
 endloop
endfacet
facet normal -0.866404 -0.499344 0
 outer loop
  vertex 114.619 1.91342 20
  vertex 113.536 3.53553 20
  vertex 114.619 1.91342 0
 endloop
endfacet
facet normal -0.609362 -0.792892 0
 outer loop
  vertex 113.536 3.53553 20
  vertex 111.913 4.6194 20
  vertex 113.536 3.53553 0
 endloop
endfacet
facet normal 0.129775 -0.991543 0
 outer loop
  vertex 90 5 20
  vertex 88.0866 4.6194 20
  vertex 90 5 0
 endloop
endfacet
facet normal 0.259551 -0.96573 0
 outer loop
  vertex 90 5 0
  vertex 88.0866 4.6194 20
  vertex 88.0866 4.6194 0
 endloop
endfacet
facet normal 0.499344 -0.866404 0
 outer loop
  vertex 88.0866 4.6194 0
  vertex 88.0866 4.6194 20
  vertex 86.4645 3.53553 20
 endloop
endfacet
facet normal 0.792892 -0.609362 0
 outer loop
  vertex 86.4645 3.53553 0
  vertex 86.4645 3.53553 20
  vertex 85.3806 1.91342 20
 endloop
endfacet
facet normal 0.96573 -0.259551 0
 outer loop
  vertex 85.3806 1.91342 0
  vertex 85.3806 1.91342 20
  vertex 85 0 20
 endloop
endfacet
facet normal 0.991543 0.129775 0
 outer loop
  vertex 85 0 0
  vertex 85 0 20
  vertex 85.3806 -1.91342 20
 endloop
endfacet
facet normal 0.866404 0.499344 0
 outer loop
  vertex 85.3806 -1.91342 0
  vertex 85.3806 -1.91342 20
  vertex 86.4645 -3.53553 20
 endloop
endfacet
facet normal 0.609362 0.792892 0
 outer loop
  vertex 86.4645 -3.53553 0
  vertex 86.4645 -3.53553 20
  vertex 88.0866 -4.6194 20
 endloop
endfacet
facet normal 0.259551 0.96573 0
 outer loop
  vertex 88.0866 -4.6194 0
  vertex 88.0866 -4.6194 20
  vertex 90 -5 20
 endloop
endfacet
facet normal 0.129775 0.991543 0
 outer loop
  vertex 90 -5 0
  vertex 88.0866 -4.6194 0
  vertex 90 -5 20
 endloop
endfacet
facet normal 0.499344 0.866404 0
 outer loop
  vertex 88.0866 -4.6194 0
  vertex 86.4645 -3.53553 0
  vertex 88.0866 -4.6194 20
 endloop
endfacet
facet normal 0.792892 0.609362 0
 outer loop
  vertex 86.4645 -3.53553 0
  vertex 85.3806 -1.91342 0
  vertex 86.4645 -3.53553 20
 endloop
endfacet
facet normal 0.96573 0.259551 0
 outer loop
  vertex 85.3806 -1.91342 0
  vertex 85 0 0
  vertex 85.3806 -1.91342 20
 endloop
endfacet
facet normal 0.991543 -0.129775 0
 outer loop
  vertex 85 0 0
  vertex 85.3806 1.91342 0
  vertex 85 0 20
 endloop
endfacet
facet normal 0.866404 -0.499344 0
 outer loop
  vertex 85.3806 1.91342 0
  vertex 86.4645 3.53553 0
  vertex 85.3806 1.91342 20
 endloop
endfacet
facet normal 0.609362 -0.792892 0
 outer loop
  vertex 86.4645 3.53553 0
  vertex 88.0866 4.6194 0
  vertex 86.4645 3.53553 20
 endloop
endfacet
facet normal 0.0869338 0.996214 0
 outer loop
  vertex 110 10 20
  vertex 112.588 9.65926 20
  vertex 110 10 0
 endloop
endfacet
facet normal 0.173868 0.984769 0
 outer loop
  vertex 110 10 0
  vertex 112.588 9.65926 20
  vertex 112.588 9.65926 0
 endloop
endfacet
facet normal 0.341811 0.939769 0
 outer loop
  vertex 112.588 9.65926 0
  vertex 112.588 9.65926 20
  vertex 115 8.66025 20
 endloop
endfacet
facet normal 0.573394 0.81928 0
 outer loop
  vertex 115 8.66025 0
  vertex 115 8.66025 20
  vertex 117.071 7.07107 20
 endloop
endfacet
facet normal 0.765901 0.642958 0
 outer loop
  vertex 117.071 7.07107 0
  vertex 117.071 7.07107 20
  vertex 118.66 5 20
 endloop
endfacet
facet normal 0.906214 0.42282 0
 outer loop
  vertex 118.66 5 0
  vertex 118.66 5 20
  vertex 119.659 2.58819 20
 endloop
endfacet
facet normal 0.984769 0.173868 0
 outer loop
  vertex 119.659 2.58819 0
  vertex 119.659 2.58819 20
  vertex 120 0 20
 endloop
endfacet
facet normal 0.996214 -0.0869338 0
 outer loop
  vertex 120 0 0
  vertex 120 0 20
  vertex 119.659 -2.58819 20
 endloop
endfacet
facet normal 0.939769 -0.341811 0
 outer loop
  vertex 119.659 -2.58819 0
  vertex 119.659 -2.58819 20
  vertex 118.66 -5 20
 endloop
endfacet
facet normal 0.81928 -0.573394 0
 outer loop
  vertex 118.66 -5 0
  vertex 118.66 -5 20
  vertex 117.071 -7.07107 20
 endloop
endfacet
facet normal 0.642958 -0.765901 0
 outer loop
  vertex 117.071 -7.07107 0
  vertex 117.071 -7.07107 20
  vertex 115 -8.66025 20
 endloop
endfacet
facet normal 0.42282 -0.906214 0
 outer loop
  vertex 115 -8.66025 0
  vertex 115 -8.66025 20
  vertex 112.588 -9.65926 20
 endloop
endfacet
facet normal 0.173868 -0.984769 0
 outer loop
  vertex 112.588 -9.65926 0
  vertex 112.588 -9.65926 20
  vertex 110 -10 20
 endloop
endfacet
facet normal 0.0869338 -0.996214 0
 outer loop
  vertex 110 -10 0
  vertex 112.588 -9.65926 0
  vertex 110 -10 20
 endloop
endfacet
facet normal 0.341811 -0.939769 0
 outer loop
  vertex 112.588 -9.65926 0
  vertex 115 -8.66025 0
  vertex 112.588 -9.65926 20
 endloop
endfacet
facet normal 0.573394 -0.81928 0
 outer loop
  vertex 115 -8.66025 0
  vertex 117.071 -7.07107 0
  vertex 115 -8.66025 20
 endloop
endfacet
facet normal 0.765901 -0.642958 0
 outer loop
  vertex 117.071 -7.07107 0
  vertex 118.66 -5 0
  vertex 117.071 -7.07107 20
 endloop
endfacet
facet normal 0.906214 -0.42282 0
 outer loop
  vertex 118.66 -5 0
  vertex 119.659 -2.58819 0
  vertex 118.66 -5 20
 endloop
endfacet
facet normal 0.984769 -0.173868 0
 outer loop
  vertex 119.659 -2.58819 0
  vertex 120 0 0
  vertex 119.659 -2.58819 20
 endloop
endfacet
facet normal 0.996214 0.0869338 0
 outer loop
  vertex 120 0 0
  vertex 119.659 2.58819 0
  vertex 120 0 20
 endloop
endfacet
facet normal 0.939769 0.341811 0
 outer loop
  vertex 119.659 2.58819 0
  vertex 118.66 5 0
  vertex 119.659 2.58819 20
 endloop
endfacet
facet normal 0.81928 0.573394 0
 outer loop
  vertex 118.66 5 0
  vertex 117.071 7.07107 0
  vertex 118.66 5 20
 endloop
endfacet
facet normal 0.642958 0.765901 0
 outer loop
  vertex 117.071 7.07107 0
  vertex 115 8.66025 0
  vertex 117.071 7.07107 20
 endloop
endfacet
facet normal 0.42282 0.906214 0
 outer loop
  vertex 115 8.66025 0
  vertex 112.588 9.65926 0
  vertex 115 8.66025 20
 endloop
endfacet
facet normal 0 1 0
 outer loop
  vertex 90 10 20
  vertex 110 10 20
  vertex 90 10 0
 endloop
endfacet
facet normal 0 1 0
 outer loop
  vertex 90 10 0
  vertex 110 10 20
  vertex 110 10 0
 endloop
endfacet
facet normal 0 -1 0
 outer loop
  vertex 110 -10 20
  vertex 90 -10 20
  vertex 110 -10 0
 endloop
endfacet
facet normal 0 -1 0
 outer loop
  vertex 110 -10 0
  vertex 90 -10 20
  vertex 90 -10 0
 endloop
endfacet
facet normal 0 0 1
 outer loop
  vertex 87.4118 -9.65926 20
  vertex 90 -10 20
  vertex 90 -5 20
 endloop
endfacet
facet normal 0 0 1
 outer loop
  vertex 88.0866 -4.6194 20
  vertex 87.4118 -9.65926 20
  vertex 90 -5 20
 endloop
endfacet
facet normal 0 0 1
 outer loop
  vertex 88.0866 -4.6194 20
  vertex 85 -8.66025 20
  vertex 87.4118 -9.65926 20
 endloop
endfacet
facet normal 0 0 1
 outer loop
  vertex 88.0866 -4.6194 20
  vertex 86.4645 -3.53553 20
  vertex 85 -8.66025 20
 endloop
endfacet
facet normal 0 0 1
 outer loop
  vertex 85 -8.66025 20
  vertex 86.4645 -3.53553 20
  vertex 82.9289 -7.07107 20
 endloop
endfacet
facet normal 0 0 1
 outer loop
  vertex 82.9289 -7.07107 20
  vertex 86.4645 -3.53553 20
  vertex 81.3398 -5 20
 endloop
endfacet
facet normal 0 0 1
 outer loop
  vertex 81.3398 -5 20
  vertex 86.4645 -3.53553 20
  vertex 85.3806 -1.91342 20
 endloop
endfacet
facet normal 0 0 1
 outer loop
  vertex 80.3407 -2.58819 20
  vertex 85.3806 -1.91342 20
  vertex 85 0 20
 endloop
endfacet
facet normal 0 0 1
 outer loop
  vertex 80 0 20
  vertex 85 0 20
  vertex 80.3407 2.58819 20
 endloop
endfacet
facet normal 0 0 1
 outer loop
  vertex 80 0 20
  vertex 80.3407 -2.58819 20
  vertex 85 0 20
 endloop
endfacet
facet normal 0 0 1
 outer loop
  vertex 85 0 20
  vertex 85.3806 1.91342 20
  vertex 80.3407 2.58819 20
 endloop
endfacet
facet normal 0 0 1
 outer loop
  vertex 80.3407 2.58819 20
  vertex 85.3806 1.91342 20
  vertex 81.3398 5 20
 endloop
endfacet
facet normal 0 0 1
 outer loop
  vertex 81.3398 5 20
  vertex 85.3806 1.91342 20
  vertex 86.4645 3.53553 20
 endloop
endfacet
facet normal 0 0 1
 outer loop
  vertex 82.9289 7.07107 20
  vertex 86.4645 3.53553 20
  vertex 85 8.66025 20
 endloop
endfacet
facet normal 0 0 1
 outer loop
  vertex 82.9289 7.07107 20
  vertex 81.3398 5 20
  vertex 86.4645 3.53553 20
 endloop
endfacet
facet normal 0 0 1
 outer loop
  vertex 86.4645 3.53553 20
  vertex 88.0866 4.6194 20
  vertex 85 8.66025 20
 endloop
endfacet
facet normal 0 0 1
 outer loop
  vertex 85 8.66025 20
  vertex 88.0866 4.6194 20
  vertex 87.4118 9.65926 20
 endloop
endfacet
facet normal 0 0 1
 outer loop
  vertex 87.4118 9.65926 20
  vertex 88.0866 4.6194 20
  vertex 90 5 20
 endloop
endfacet
facet normal 0 0 1
 outer loop
  vertex 90 10 20
  vertex 90 5 20
  vertex 110 5 20
 endloop
endfacet
facet normal 0 0 1
 outer loop
  vertex 110 10 20
  vertex 110 5 20
  vertex 112.588 9.65926 20
 endloop
endfacet
facet normal 0 0 1
 outer loop
  vertex 110 10 20
  vertex 90 10 20
  vertex 110 5 20
 endloop
endfacet
facet normal 0 0 1
 outer loop
  vertex 110 5 20
  vertex 111.913 4.6194 20
  vertex 112.588 9.65926 20
 endloop
endfacet
facet normal 0 0 1
 outer loop
  vertex 112.588 9.65926 20
  vertex 111.913 4.6194 20
  vertex 115 8.66025 20
 endloop
endfacet
facet normal 0 0 1
 outer loop
  vertex 115 8.66025 20
  vertex 111.913 4.6194 20
  vertex 113.536 3.53553 20
 endloop
endfacet
facet normal 0 0 1
 outer loop
  vertex 117.071 7.07107 20
  vertex 113.536 3.53553 20
  vertex 118.66 5 20
 endloop
endfacet
facet normal 0 0 1
 outer loop
  vertex 117.071 7.07107 20
  vertex 115 8.66025 20
  vertex 113.536 3.53553 20
 endloop
endfacet
facet normal 0 0 1
 outer loop
  vertex 113.536 3.53553 20
  vertex 114.619 1.91342 20
  vertex 118.66 5 20
 endloop
endfacet
facet normal 0 0 1
 outer loop
  vertex 118.66 5 20
  vertex 114.619 1.91342 20
  vertex 119.659 2.58819 20
 endloop
endfacet
facet normal 0 0 1
 outer loop
  vertex 119.659 2.58819 20
  vertex 114.619 1.91342 20
  vertex 115 0 20
 endloop
endfacet
facet normal 0 0 1
 outer loop
  vertex 120 0 20
  vertex 115 0 20
  vertex 119.659 -2.58819 20
 endloop
endfacet
facet normal 0 0 1
 outer loop
  vertex 120 0 20
  vertex 119.659 2.58819 20
  vertex 115 0 20
 endloop
endfacet
facet normal 0 0 1
 outer loop
  vertex 115 0 20
  vertex 114.619 -1.91342 20
  vertex 119.659 -2.58819 20
 endloop
endfacet
facet normal 0 0 1
 outer loop
  vertex 119.659 -2.58819 20
  vertex 114.619 -1.91342 20
  vertex 118.66 -5 20
 endloop
endfacet
facet normal 0 0 1
 outer loop
  vertex 118.66 -5 20
  vertex 114.619 -1.91342 20
  vertex 113.536 -3.53553 20
 endloop
endfacet
facet normal 0 0 1
 outer loop
  vertex 117.071 -7.07107 20
  vertex 113.536 -3.53553 20
  vertex 115 -8.66025 20
 endloop
endfacet
facet normal 0 0 1
 outer loop
  vertex 117.071 -7.07107 20
  vertex 118.66 -5 20
  vertex 113.536 -3.53553 20
 endloop
endfacet
facet normal 0 0 1
 outer loop
  vertex 113.536 -3.53553 20
  vertex 111.913 -4.6194 20
  vertex 115 -8.66025 20
 endloop
endfacet
facet normal 0 0 1
 outer loop
  vertex 115 -8.66025 20
  vertex 111.913 -4.6194 20
  vertex 112.588 -9.65926 20
 endloop
endfacet
facet normal 0 0 1
 outer loop
  vertex 112.588 -9.65926 20
  vertex 111.913 -4.6194 20
  vertex 110 -5 20
 endloop
endfacet
facet normal 0 0 1
 outer loop
  vertex 110 -10 20
  vertex 110 -5 20
  vertex 90 -5 20
 endloop
endfacet
facet normal 0 0 1
 outer loop
  vertex 90 -10 20
  vertex 110 -10 20
  vertex 90 -5 20
 endloop
endfacet
facet normal 0 0 1
 outer loop
  vertex 90 10 20
  vertex 87.4118 9.65926 20
  vertex 90 5 20
 endloop
endfacet
facet normal 0 0 1
 outer loop
  vertex 80.3407 -2.58819 20
  vertex 81.3398 -5 20
  vertex 85.3806 -1.91342 20
 endloop
endfacet
facet normal 0 0 1
 outer loop
  vertex 110 -10 20
  vertex 112.588 -9.65926 20
  vertex 110 -5 20
 endloop
endfacet
facet normal -0.0869338 -0.996214 0
 outer loop
  vertex 90 -10 20
  vertex 87.4118 -9.65926 20
  vertex 90 -10 0
 endloop
endfacet
facet normal -0.173868 -0.984769 0
 outer loop
  vertex 90 -10 0
  vertex 87.4118 -9.65926 20
  vertex 87.4118 -9.65926 0
 endloop
endfacet
facet normal -0.341811 -0.939769 0
 outer loop
  vertex 87.4118 -9.65926 0
  vertex 87.4118 -9.65926 20
  vertex 85 -8.66025 20
 endloop
endfacet
facet normal -0.573394 -0.81928 0
 outer loop
  vertex 85 -8.66025 0
  vertex 85 -8.66025 20
  vertex 82.9289 -7.07107 20
 endloop
endfacet
facet normal -0.765901 -0.642958 0
 outer loop
  vertex 82.9289 -7.07107 0
  vertex 82.9289 -7.07107 20
  vertex 81.3398 -5 20
 endloop
endfacet
facet normal -0.906214 -0.42282 0
 outer loop
  vertex 81.3398 -5 0
  vertex 81.3398 -5 20
  vertex 80.3407 -2.58819 20
 endloop
endfacet
facet normal -0.984769 -0.173868 0
 outer loop
  vertex 80.3407 -2.58819 0
  vertex 80.3407 -2.58819 20
  vertex 80 0 20
 endloop
endfacet
facet normal -0.996214 0.0869338 0
 outer loop
  vertex 80 0 0
  vertex 80 0 20
  vertex 80.3407 2.58819 20
 endloop
endfacet
facet normal -0.939769 0.341811 0
 outer loop
  vertex 80.3407 2.58819 0
  vertex 80.3407 2.58819 20
  vertex 81.3398 5 20
 endloop
endfacet
facet normal -0.81928 0.573394 0
 outer loop
  vertex 81.3398 5 0
  vertex 81.3398 5 20
  vertex 82.9289 7.07107 20
 endloop
endfacet
facet normal -0.642958 0.765901 0
 outer loop
  vertex 82.9289 7.07107 0
  vertex 82.9289 7.07107 20
  vertex 85 8.66025 20
 endloop
endfacet
facet normal -0.42282 0.906214 0
 outer loop
  vertex 85 8.66025 0
  vertex 85 8.66025 20
  vertex 87.4118 9.65926 20
 endloop
endfacet
facet normal -0.173868 0.984769 0
 outer loop
  vertex 87.4118 9.65926 0
  vertex 87.4118 9.65926 20
  vertex 90 10 20
 endloop
endfacet
facet normal -0.0869338 0.996214 0
 outer loop
  vertex 90 10 0
  vertex 87.4118 9.65926 0
  vertex 90 10 20
 endloop
endfacet
facet normal -0.341811 0.939769 0
 outer loop
  vertex 87.4118 9.65926 0
  vertex 85 8.66025 0
  vertex 87.4118 9.65926 20
 endloop
endfacet
facet normal -0.573394 0.81928 0
 outer loop
  vertex 85 8.66025 0
  vertex 82.9289 7.07107 0
  vertex 85 8.66025 20
 endloop
endfacet
facet normal -0.765901 0.642958 0
 outer loop
  vertex 82.9289 7.07107 0
  vertex 81.3398 5 0
  vertex 82.9289 7.07107 20
 endloop
endfacet
facet normal -0.906214 0.42282 0
 outer loop
  vertex 81.3398 5 0
  vertex 80.3407 2.58819 0
  vertex 81.3398 5 20
 endloop
endfacet
facet normal -0.984769 0.173868 0
 outer loop
  vertex 80.3407 2.58819 0
  vertex 80 0 0
  vertex 80.3407 2.58819 20
 endloop
endfacet
facet normal -0.996214 -0.0869338 0
 outer loop
  vertex 80 0 0
  vertex 80.3407 -2.58819 0
  vertex 80 0 20
 endloop
endfacet
facet normal -0.939769 -0.341811 0
 outer loop
  vertex 80.3407 -2.58819 0
  vertex 81.3398 -5 0
  vertex 80.3407 -2.58819 20
 endloop
endfacet
facet normal -0.81928 -0.573394 0
 outer loop
  vertex 81.3398 -5 0
  vertex 82.9289 -7.07107 0
  vertex 81.3398 -5 20
 endloop
endfacet
facet normal -0.642958 -0.765901 0
 outer loop
  vertex 82.9289 -7.07107 0
  vertex 85 -8.66025 0
  vertex 82.9289 -7.07107 20
 endloop
endfacet
facet normal -0.42282 -0.906214 0
 outer loop
  vertex 85 -8.66025 0
  vertex 87.4118 -9.65926 0
  vertex 85 -8.66025 20
 endloop
endfacet
facet normal 0 0 -1
 outer loop
  vertex 112.588 -9.65926 0
  vertex 110 -10 0
  vertex 110 -5 0
 endloop
endfacet
facet normal 0 0 -1
 outer loop
  vertex 111.913 -4.6194 0
  vertex 112.588 -9.65926 0
  vertex 110 -5 0
 endloop
endfacet
facet normal 0 0 -1
 outer loop
  vertex 111.913 -4.6194 0
  vertex 115 -8.66025 0
  vertex 112.588 -9.65926 0
 endloop
endfacet
facet normal 0 0 -1
 outer loop
  vertex 111.913 -4.6194 0
  vertex 113.536 -3.53553 0
  vertex 115 -8.66025 0
 endloop
endfacet
facet normal 0 0 -1
 outer loop
  vertex 115 -8.66025 0
  vertex 113.536 -3.53553 0
  vertex 117.071 -7.07107 0
 endloop
endfacet
facet normal 0 0 -1
 outer loop
  vertex 117.071 -7.07107 0
  vertex 113.536 -3.53553 0
  vertex 118.66 -5 0
 endloop
endfacet
facet normal 0 0 -1
 outer loop
  vertex 118.66 -5 0
  vertex 113.536 -3.53553 0
  vertex 114.619 -1.91342 0
 endloop
endfacet
facet normal 0 0 -1
 outer loop
  vertex 119.659 -2.58819 0
  vertex 114.619 -1.91342 0
  vertex 115 0 0
 endloop
endfacet
facet normal 0 0 -1
 outer loop
  vertex 120 0 0
  vertex 115 0 0
  vertex 119.659 2.58819 0
 endloop
endfacet
facet normal 0 0 -1
 outer loop
  vertex 120 0 0
  vertex 119.659 -2.58819 0
  vertex 115 0 0
 endloop
endfacet
facet normal 0 0 -1
 outer loop
  vertex 115 0 0
  vertex 114.619 1.91342 0
  vertex 119.659 2.58819 0
 endloop
endfacet
facet normal 0 0 -1
 outer loop
  vertex 119.659 2.58819 0
  vertex 114.619 1.91342 0
  vertex 118.66 5 0
 endloop
endfacet
facet normal 0 0 -1
 outer loop
  vertex 118.66 5 0
  vertex 114.619 1.91342 0
  vertex 113.536 3.53553 0
 endloop
endfacet
facet normal 0 0 -1
 outer loop
  vertex 117.071 7.07107 0
  vertex 113.536 3.53553 0
  vertex 115 8.66025 0
 endloop
endfacet
facet normal 0 0 -1
 outer loop
  vertex 117.071 7.07107 0
  vertex 118.66 5 0
  vertex 113.536 3.53553 0
 endloop
endfacet
facet normal 0 0 -1
 outer loop
  vertex 113.536 3.53553 0
  vertex 111.913 4.6194 0
  vertex 115 8.66025 0
 endloop
endfacet
facet normal 0 0 -1
 outer loop
  vertex 115 8.66025 0
  vertex 111.913 4.6194 0
  vertex 112.588 9.65926 0
 endloop
endfacet
facet normal 0 0 -1
 outer loop
  vertex 112.588 9.65926 0
  vertex 111.913 4.6194 0
  vertex 110 5 0
 endloop
endfacet
facet normal 0 0 -1
 outer loop
  vertex 110 10 0
  vertex 110 5 0
  vertex 90 5 0
 endloop
endfacet
facet normal 0 0 -1
 outer loop
  vertex 90 10 0
  vertex 90 5 0
  vertex 87.4118 9.65926 0
 endloop
endfacet
facet normal 0 0 -1
 outer loop
  vertex 90 10 0
  vertex 110 10 0
  vertex 90 5 0
 endloop
endfacet
facet normal 0 0 -1
 outer loop
  vertex 90 5 0
  vertex 88.0866 4.6194 0
  vertex 87.4118 9.65926 0
 endloop
endfacet
facet normal 0 0 -1
 outer loop
  vertex 87.4118 9.65926 0
  vertex 88.0866 4.6194 0
  vertex 85 8.66025 0
 endloop
endfacet
facet normal 0 0 -1
 outer loop
  vertex 85 8.66025 0
  vertex 88.0866 4.6194 0
  vertex 86.4645 3.53553 0
 endloop
endfacet
facet normal 0 0 -1
 outer loop
  vertex 82.9289 7.07107 0
  vertex 86.4645 3.53553 0
  vertex 81.3398 5 0
 endloop
endfacet
facet normal 0 0 -1
 outer loop
  vertex 82.9289 7.07107 0
  vertex 85 8.66025 0
  vertex 86.4645 3.53553 0
 endloop
endfacet
facet normal 0 0 -1
 outer loop
  vertex 86.4645 3.53553 0
  vertex 85.3806 1.91342 0
  vertex 81.3398 5 0
 endloop
endfacet
facet normal 0 0 -1
 outer loop
  vertex 81.3398 5 0
  vertex 85.3806 1.91342 0
  vertex 80.3407 2.58819 0
 endloop
endfacet
facet normal 0 0 -1
 outer loop
  vertex 80.3407 2.58819 0
  vertex 85.3806 1.91342 0
  vertex 85 0 0
 endloop
endfacet
facet normal 0 0 -1
 outer loop
  vertex 80 0 0
  vertex 85 0 0
  vertex 80.3407 -2.58819 0
 endloop
endfacet
facet normal 0 0 -1
 outer loop
  vertex 80 0 0
  vertex 80.3407 2.58819 0
  vertex 85 0 0
 endloop
endfacet
facet normal 0 0 -1
 outer loop
  vertex 85 0 0
  vertex 85.3806 -1.91342 0
  vertex 80.3407 -2.58819 0
 endloop
endfacet
facet normal 0 0 -1
 outer loop
  vertex 80.3407 -2.58819 0
  vertex 85.3806 -1.91342 0
  vertex 81.3398 -5 0
 endloop
endfacet
facet normal 0 0 -1
 outer loop
  vertex 81.3398 -5 0
  vertex 85.3806 -1.91342 0
  vertex 86.4645 -3.53553 0
 endloop
endfacet
facet normal 0 0 -1
 outer loop
  vertex 82.9289 -7.07107 0
  vertex 86.4645 -3.53553 0
  vertex 85 -8.66025 0
 endloop
endfacet
facet normal 0 0 -1
 outer loop
  vertex 82.9289 -7.07107 0
  vertex 81.3398 -5 0
  vertex 86.4645 -3.53553 0
 endloop
endfacet
facet normal 0 0 -1
 outer loop
  vertex 86.4645 -3.53553 0
  vertex 88.0866 -4.6194 0
  vertex 85 -8.66025 0
 endloop
endfacet
facet normal 0 0 -1
 outer loop
  vertex 85 -8.66025 0
  vertex 88.0866 -4.6194 0
  vertex 87.4118 -9.65926 0
 endloop
endfacet
facet normal 0 0 -1
 outer loop
  vertex 87.4118 -9.65926 0
  vertex 88.0866 -4.6194 0
  vertex 90 -5 0
 endloop
endfacet
facet normal 0 0 -1
 outer loop
  vertex 90 -10 0
  vertex 90 -5 0
  vertex 110 -5 0
 endloop
endfacet
facet normal 0 0 -1
 outer loop
  vertex 110 -10 0
  vertex 90 -10 0
  vertex 110 -5 0
 endloop
endfacet
facet normal 0 0 -1
 outer loop
  vertex 90 -10 0
  vertex 87.4118 -9.65926 0
  vertex 90 -5 0
 endloop
endfacet
facet normal 0 0 -1
 outer loop
  vertex 110 10 0
  vertex 112.588 9.65926 0
  vertex 110 5 0
 endloop
endfacet
facet normal 0 0 -1
 outer loop
  vertex 119.659 -2.58819 0
  vertex 118.66 -5 0
  vertex 114.619 -1.91342 0
 endloop
endfacet
facet normal 0 -1 0
 outer loop
  vertex 0 5 20
  vertex -20 5 20
  vertex 0 5 0
 endloop
endfacet
facet normal 0 -1 0
 outer loop
  vertex 0 5 0
  vertex -20 5 20
  vertex -20 5 0
 endloop
endfacet
facet normal 0 1 0
 outer loop
  vertex -20 -5 20
  vertex 0 -5 20
  vertex -20 -5 0
 endloop
endfacet
facet normal 0 1 0
 outer loop
  vertex -20 -5 0
  vertex 0 -5 20
  vertex 0 -5 0
 endloop
endfacet
facet normal -0.129775 -0.991543 0
 outer loop
  vertex 0 5 0
  vertex 1.91342 4.6194 0
  vertex 0 5 20
 endloop
endfacet
facet normal -0.259551 -0.96573 0
 outer loop
  vertex 0 5 20
  vertex 1.91342 4.6194 0
  vertex 1.91342 4.6194 20
 endloop
endfacet
facet normal -0.499344 -0.866404 0
 outer loop
  vertex 1.91342 4.6194 20
  vertex 1.91342 4.6194 0
  vertex 3.53553 3.53553 0
 endloop
endfacet
facet normal -0.792892 -0.609362 0
 outer loop
  vertex 3.53553 3.53553 20
  vertex 3.53553 3.53553 0
  vertex 4.6194 1.91342 0
 endloop
endfacet
facet normal -0.96573 -0.259551 0
 outer loop
  vertex 4.6194 1.91342 20
  vertex 4.6194 1.91342 0
  vertex 5 0 0
 endloop
endfacet
facet normal -0.991543 0.129775 0
 outer loop
  vertex 5 0 20
  vertex 5 0 0
  vertex 4.6194 -1.91342 0
 endloop
endfacet
facet normal -0.866404 0.499344 0
 outer loop
  vertex 4.6194 -1.91342 20
  vertex 4.6194 -1.91342 0
  vertex 3.53553 -3.53553 0
 endloop
endfacet
facet normal -0.609362 0.792892 0
 outer loop
  vertex 3.53553 -3.53553 20
  vertex 3.53553 -3.53553 0
  vertex 1.91342 -4.6194 0
 endloop
endfacet
facet normal -0.259551 0.96573 0
 outer loop
  vertex 1.91342 -4.6194 20
  vertex 1.91342 -4.6194 0
  vertex 0 -5 0
 endloop
endfacet
facet normal -0.129775 0.991543 0
 outer loop
  vertex 0 -5 20
  vertex 1.91342 -4.6194 20
  vertex 0 -5 0
 endloop
endfacet
facet normal -0.499344 0.866404 0
 outer loop
  vertex 1.91342 -4.6194 20
  vertex 3.53553 -3.53553 20
  vertex 1.91342 -4.6194 0
 endloop
endfacet
facet normal -0.792892 0.609362 0
 outer loop
  vertex 3.53553 -3.53553 20
  vertex 4.6194 -1.91342 20
  vertex 3.53553 -3.53553 0
 endloop
endfacet
facet normal -0.96573 0.259551 0
 outer loop
  vertex 4.6194 -1.91342 20
  vertex 5 0 20
  vertex 4.6194 -1.91342 0
 endloop
endfacet
facet normal -0.991543 -0.129775 0
 outer loop
  vertex 5 0 20
  vertex 4.6194 1.91342 20
  vertex 5 0 0
 endloop
endfacet
facet normal -0.866404 -0.499344 0
 outer loop
  vertex 4.6194 1.91342 20
  vertex 3.53553 3.53553 20
  vertex 4.6194 1.91342 0
 endloop
endfacet
facet normal -0.609362 -0.792892 0
 outer loop
  vertex 3.53553 3.53553 20
  vertex 1.91342 4.6194 20
  vertex 3.53553 3.53553 0
 endloop
endfacet
facet normal 0.129775 -0.991543 0
 outer loop
  vertex -20 5 20
  vertex -21.9134 4.6194 20
  vertex -20 5 0
 endloop
endfacet
facet normal 0.259551 -0.96573 0
 outer loop
  vertex -20 5 0
  vertex -21.9134 4.6194 20
  vertex -21.9134 4.6194 0
 endloop
endfacet
facet normal 0.499344 -0.866404 0
 outer loop
  vertex -21.9134 4.6194 0
  vertex -21.9134 4.6194 20
  vertex -23.5355 3.53553 20
 endloop
endfacet
facet normal 0.792892 -0.609362 0
 outer loop
  vertex -23.5355 3.53553 0
  vertex -23.5355 3.53553 20
  vertex -24.6194 1.91342 20
 endloop
endfacet
facet normal 0.96573 -0.259551 0
 outer loop
  vertex -24.6194 1.91342 0
  vertex -24.6194 1.91342 20
  vertex -25 -6.12323E-16 20
 endloop
endfacet
facet normal 0.991543 0.129775 0
 outer loop
  vertex -25 6.12323E-16 0
  vertex -25 -6.12323E-16 20
  vertex -24.6194 -1.91342 20
 endloop
endfacet
facet normal 0.866404 0.499344 0
 outer loop
  vertex -24.6194 -1.91342 0
  vertex -24.6194 -1.91342 20
  vertex -23.5355 -3.53553 20
 endloop
endfacet
facet normal 0.609362 0.792892 0
 outer loop
  vertex -23.5355 -3.53553 0
  vertex -23.5355 -3.53553 20
  vertex -21.9134 -4.6194 20
 endloop
endfacet
facet normal 0.259551 0.96573 0
 outer loop
  vertex -21.9134 -4.6194 0
  vertex -21.9134 -4.6194 20
  vertex -20 -5 20
 endloop
endfacet
facet normal 0.129775 0.991543 0
 outer loop
  vertex -20 -5 0
  vertex -21.9134 -4.6194 0
  vertex -20 -5 20
 endloop
endfacet
facet normal 0.499344 0.866404 0
 outer loop
  vertex -21.9134 -4.6194 0
  vertex -23.5355 -3.53553 0
  vertex -21.9134 -4.6194 20
 endloop
endfacet
facet normal 0.792892 0.609362 0
 outer loop
  vertex -23.5355 -3.53553 0
  vertex -24.6194 -1.91342 0
  vertex -23.5355 -3.53553 20
 endloop
endfacet
facet normal 0.96573 0.259551 0
 outer loop
  vertex -24.6194 -1.91342 0
  vertex -25 6.12323E-16 0
  vertex -24.6194 -1.91342 20
 endloop
endfacet
facet normal 0.991543 -0.129775 0
 outer loop
  vertex -25 6.12323E-16 0
  vertex -24.6194 1.91342 0
  vertex -25 -6.12323E-16 20
 endloop
endfacet
facet normal 0.866404 -0.499344 0
 outer loop
  vertex -24.6194 1.91342 0
  vertex -23.5355 3.53553 0
  vertex -24.6194 1.91342 20
 endloop
endfacet
facet normal 0.609362 -0.792892 0
 outer loop
  vertex -23.5355 3.53553 0
  vertex -21.9134 4.6194 0
  vertex -23.5355 3.53553 20
 endloop
endfacet
facet normal 0.0869338 0.996214 0
 outer loop
  vertex 0 10 20
  vertex 2.58819 9.65926 20
  vertex 0 10 0
 endloop
endfacet
facet normal 0.173868 0.984769 0
 outer loop
  vertex 0 10 0
  vertex 2.58819 9.65926 20
  vertex 2.58819 9.65926 0
 endloop
endfacet
facet normal 0.341811 0.939769 0
 outer loop
  vertex 2.58819 9.65926 0
  vertex 2.58819 9.65926 20
  vertex 5 8.66025 20
 endloop
endfacet
facet normal 0.573394 0.81928 0
 outer loop
  vertex 5 8.66025 0
  vertex 5 8.66025 20
  vertex 7.07107 7.07107 20
 endloop
endfacet
facet normal 0.765901 0.642958 0
 outer loop
  vertex 7.07107 7.07107 0
  vertex 7.07107 7.07107 20
  vertex 8.66025 5 20
 endloop
endfacet
facet normal 0.906214 0.42282 0
 outer loop
  vertex 8.66025 5 0
  vertex 8.66025 5 20
  vertex 9.65926 2.58819 20
 endloop
endfacet
facet normal 0.984769 0.173868 0
 outer loop
  vertex 9.65926 2.58819 0
  vertex 9.65926 2.58819 20
  vertex 10 0 20
 endloop
endfacet
facet normal 0.996214 -0.0869338 0
 outer loop
  vertex 10 0 0
  vertex 10 0 20
  vertex 9.65926 -2.58819 20
 endloop
endfacet
facet normal 0.939769 -0.341811 0
 outer loop
  vertex 9.65926 -2.58819 0
  vertex 9.65926 -2.58819 20
  vertex 8.66025 -5 20
 endloop
endfacet
facet normal 0.81928 -0.573394 0
 outer loop
  vertex 8.66025 -5 0
  vertex 8.66025 -5 20
  vertex 7.07107 -7.07107 20
 endloop
endfacet
facet normal 0.642958 -0.765901 0
 outer loop
  vertex 7.07107 -7.07107 0
  vertex 7.07107 -7.07107 20
  vertex 5 -8.66025 20
 endloop
endfacet
facet normal 0.42282 -0.906214 0
 outer loop
  vertex 5 -8.66025 0
  vertex 5 -8.66025 20
  vertex 2.58819 -9.65926 20
 endloop
endfacet
facet normal 0.173868 -0.984769 0
 outer loop
  vertex 2.58819 -9.65926 0
  vertex 2.58819 -9.65926 20
  vertex 0 -10 20
 endloop
endfacet
facet normal 0.0869338 -0.996214 0
 outer loop
  vertex 0 -10 0
  vertex 2.58819 -9.65926 0
  vertex 0 -10 20
 endloop
endfacet
facet normal 0.341811 -0.939769 0
 outer loop
  vertex 2.58819 -9.65926 0
  vertex 5 -8.66025 0
  vertex 2.58819 -9.65926 20
 endloop
endfacet
facet normal 0.573394 -0.81928 0
 outer loop
  vertex 5 -8.66025 0
  vertex 7.07107 -7.07107 0
  vertex 5 -8.66025 20
 endloop
endfacet
facet normal 0.765901 -0.642958 0
 outer loop
  vertex 7.07107 -7.07107 0
  vertex 8.66025 -5 0
  vertex 7.07107 -7.07107 20
 endloop
endfacet
facet normal 0.906214 -0.42282 0
 outer loop
  vertex 8.66025 -5 0
  vertex 9.65926 -2.58819 0
  vertex 8.66025 -5 20
 endloop
endfacet
facet normal 0.984769 -0.173868 0
 outer loop
  vertex 9.65926 -2.58819 0
  vertex 10 0 0
  vertex 9.65926 -2.58819 20
 endloop
endfacet
facet normal 0.996214 0.0869338 0
 outer loop
  vertex 10 0 0
  vertex 9.65926 2.58819 0
  vertex 10 0 20
 endloop
endfacet
facet normal 0.939769 0.341811 0
 outer loop
  vertex 9.65926 2.58819 0
  vertex 8.66025 5 0
  vertex 9.65926 2.58819 20
 endloop
endfacet
facet normal 0.81928 0.573394 0
 outer loop
  vertex 8.66025 5 0
  vertex 7.07107 7.07107 0
  vertex 8.66025 5 20
 endloop
endfacet
facet normal 0.642958 0.765901 0
 outer loop
  vertex 7.07107 7.07107 0
  vertex 5 8.66025 0
  vertex 7.07107 7.07107 20
 endloop
endfacet
facet normal 0.42282 0.906214 0
 outer loop
  vertex 5 8.66025 0
  vertex 2.58819 9.65926 0
  vertex 5 8.66025 20
 endloop
endfacet
facet normal 0 1 0
 outer loop
  vertex -20 10 20
  vertex 0 10 20
  vertex -20 10 0
 endloop
endfacet
facet normal 0 1 0
 outer loop
  vertex -20 10 0
  vertex 0 10 20
  vertex 0 10 0
 endloop
endfacet
facet normal 0 -1 0
 outer loop
  vertex 0 -10 20
  vertex -20 -10 20
  vertex 0 -10 0
 endloop
endfacet
facet normal 0 -1 0
 outer loop
  vertex 0 -10 0
  vertex -20 -10 20
  vertex -20 -10 0
 endloop
endfacet
facet normal 0 0 1
 outer loop
  vertex -22.5882 -9.65926 20
  vertex -20 -10 20
  vertex -20 -5 20
 endloop
endfacet
facet normal 0 0 1
 outer loop
  vertex -21.9134 -4.6194 20
  vertex -22.5882 -9.65926 20
  vertex -20 -5 20
 endloop
endfacet
facet normal 0 0 1
 outer loop
  vertex -21.9134 -4.6194 20
  vertex -25 -8.66025 20
  vertex -22.5882 -9.65926 20
 endloop
endfacet
facet normal 0 0 1
 outer loop
  vertex -21.9134 -4.6194 20
  vertex -23.5355 -3.53553 20
  vertex -25 -8.66025 20
 endloop
endfacet
facet normal 0 0 1
 outer loop
  vertex -25 -8.66025 20
  vertex -23.5355 -3.53553 20
  vertex -27.0711 -7.07107 20
 endloop
endfacet
facet normal 0 0 1
 outer loop
  vertex -27.0711 -7.07107 20
  vertex -23.5355 -3.53553 20
  vertex -28.6603 -5 20
 endloop
endfacet
facet normal 0 0 1
 outer loop
  vertex -28.6603 -5 20
  vertex -23.5355 -3.53553 20
  vertex -24.6194 -1.91342 20
 endloop
endfacet
facet normal 0 0 1
 outer loop
  vertex -29.6593 -2.58819 20
  vertex -24.6194 -1.91342 20
  vertex -25 -6.12323E-16 20
 endloop
endfacet
facet normal 0 0 1
 outer loop
  vertex -30 -1.22465E-15 20
  vertex -25 -6.12323E-16 20
  vertex -29.6593 2.58819 20
 endloop
endfacet
facet normal 0 0 1
 outer loop
  vertex -30 -1.22465E-15 20
  vertex -29.6593 -2.58819 20
  vertex -25 -6.12323E-16 20
 endloop
endfacet
facet normal 0 0 1
 outer loop
  vertex -25 -6.12323E-16 20
  vertex -24.6194 1.91342 20
  vertex -29.6593 2.58819 20
 endloop
endfacet
facet normal 0 0 1
 outer loop
  vertex -29.6593 2.58819 20
  vertex -24.6194 1.91342 20
  vertex -28.6603 5 20
 endloop
endfacet
facet normal 0 0 1
 outer loop
  vertex -28.6603 5 20
  vertex -24.6194 1.91342 20
  vertex -23.5355 3.53553 20
 endloop
endfacet
facet normal 0 0 1
 outer loop
  vertex -27.0711 7.07107 20
  vertex -23.5355 3.53553 20
  vertex -25 8.66025 20
 endloop
endfacet
facet normal 0 0 1
 outer loop
  vertex -27.0711 7.07107 20
  vertex -28.6603 5 20
  vertex -23.5355 3.53553 20
 endloop
endfacet
facet normal 0 0 1
 outer loop
  vertex -23.5355 3.53553 20
  vertex -21.9134 4.6194 20
  vertex -25 8.66025 20
 endloop
endfacet
facet normal 0 0 1
 outer loop
  vertex -25 8.66025 20
  vertex -21.9134 4.6194 20
  vertex -22.5882 9.65926 20
 endloop
endfacet
facet normal 0 0 1
 outer loop
  vertex -22.5882 9.65926 20
  vertex -21.9134 4.6194 20
  vertex -20 5 20
 endloop
endfacet
facet normal 0 0 1
 outer loop
  vertex -20 10 20
  vertex -20 5 20
  vertex 0 5 20
 endloop
endfacet
facet normal 0 0 1
 outer loop
  vertex 0 10 20
  vertex 0 5 20
  vertex 2.58819 9.65926 20
 endloop
endfacet
facet normal 0 0 1
 outer loop
  vertex 0 10 20
  vertex -20 10 20
  vertex 0 5 20
 endloop
endfacet
facet normal 0 0 1
 outer loop
  vertex 0 5 20
  vertex 1.91342 4.6194 20
  vertex 2.58819 9.65926 20
 endloop
endfacet
facet normal 0 0 1
 outer loop
  vertex 2.58819 9.65926 20
  vertex 1.91342 4.6194 20
  vertex 5 8.66025 20
 endloop
endfacet
facet normal 0 0 1
 outer loop
  vertex 5 8.66025 20
  vertex 1.91342 4.6194 20
  vertex 3.53553 3.53553 20
 endloop
endfacet
facet normal 0 0 1
 outer loop
  vertex 7.07107 7.07107 20
  vertex 3.53553 3.53553 20
  vertex 8.66025 5 20
 endloop
endfacet
facet normal 0 0 1
 outer loop
  vertex 7.07107 7.07107 20
  vertex 5 8.66025 20
  vertex 3.53553 3.53553 20
 endloop
endfacet
facet normal 0 0 1
 outer loop
  vertex 3.53553 3.53553 20
  vertex 4.6194 1.91342 20
  vertex 8.66025 5 20
 endloop
endfacet
facet normal 0 0 1
 outer loop
  vertex 8.66025 5 20
  vertex 4.6194 1.91342 20
  vertex 9.65926 2.58819 20
 endloop
endfacet
facet normal 0 0 1
 outer loop
  vertex 9.65926 2.58819 20
  vertex 4.6194 1.91342 20
  vertex 5 0 20
 endloop
endfacet
facet normal 0 0 1
 outer loop
  vertex 10 0 20
  vertex 5 0 20
  vertex 9.65926 -2.58819 20
 endloop
endfacet
facet normal 0 0 1
 outer loop
  vertex 10 0 20
  vertex 9.65926 2.58819 20
  vertex 5 0 20
 endloop
endfacet
facet normal 0 0 1
 outer loop
  vertex 5 0 20
  vertex 4.6194 -1.91342 20
  vertex 9.65926 -2.58819 20
 endloop
endfacet
facet normal 0 0 1
 outer loop
  vertex 9.65926 -2.58819 20
  vertex 4.6194 -1.91342 20
  vertex 8.66025 -5 20
 endloop
endfacet
facet normal 0 0 1
 outer loop
  vertex 8.66025 -5 20
  vertex 4.6194 -1.91342 20
  vertex 3.53553 -3.53553 20
 endloop
endfacet
facet normal 0 0 1
 outer loop
  vertex 7.07107 -7.07107 20
  vertex 3.53553 -3.53553 20
  vertex 5 -8.66025 20
 endloop
endfacet
facet normal 0 0 1
 outer loop
  vertex 7.07107 -7.07107 20
  vertex 8.66025 -5 20
  vertex 3.53553 -3.53553 20
 endloop
endfacet
facet normal 0 0 1
 outer loop
  vertex 3.53553 -3.53553 20
  vertex 1.91342 -4.6194 20
  vertex 5 -8.66025 20
 endloop
endfacet
facet normal 0 0 1
 outer loop
  vertex 5 -8.66025 20
  vertex 1.91342 -4.6194 20
  vertex 2.58819 -9.65926 20
 endloop
endfacet
facet normal 0 0 1
 outer loop
  vertex 2.58819 -9.65926 20
  vertex 1.91342 -4.6194 20
  vertex 0 -5 20
 endloop
endfacet
facet normal 0 0 1
 outer loop
  vertex 0 -10 20
  vertex 0 -5 20
  vertex -20 -5 20
 endloop
endfacet
facet normal 0 0 1
 outer loop
  vertex -20 -10 20
  vertex 0 -10 20
  vertex -20 -5 20
 endloop
endfacet
facet normal 0 0 1
 outer loop
  vertex -20 10 20
  vertex -22.5882 9.65926 20
  vertex -20 5 20
 endloop
endfacet
facet normal 0 0 1
 outer loop
  vertex -29.6593 -2.58819 20
  vertex -28.6603 -5 20
  vertex -24.6194 -1.91342 20
 endloop
endfacet
facet normal 0 0 1
 outer loop
  vertex 0 -10 20
  vertex 2.58819 -9.65926 20
  vertex 0 -5 20
 endloop
endfacet
facet normal -0.0869338 -0.996214 0
 outer loop
  vertex -20 -10 20
  vertex -22.5882 -9.65926 20
  vertex -20 -10 0
 endloop
endfacet
facet normal -0.173868 -0.984769 0
 outer loop
  vertex -20 -10 0
  vertex -22.5882 -9.65926 20
  vertex -22.5882 -9.65926 0
 endloop
endfacet
facet normal -0.341811 -0.939769 0
 outer loop
  vertex -22.5882 -9.65926 0
  vertex -22.5882 -9.65926 20
  vertex -25 -8.66025 20
 endloop
endfacet
facet normal -0.573394 -0.81928 0
 outer loop
  vertex -25 -8.66025 0
  vertex -25 -8.66025 20
  vertex -27.0711 -7.07107 20
 endloop
endfacet
facet normal -0.765901 -0.642958 0
 outer loop
  vertex -27.0711 -7.07107 0
  vertex -27.0711 -7.07107 20
  vertex -28.6603 -5 20
 endloop
endfacet
facet normal -0.906214 -0.42282 0
 outer loop
  vertex -28.6603 -5 0
  vertex -28.6603 -5 20
  vertex -29.6593 -2.58819 20
 endloop
endfacet
facet normal -0.984769 -0.173868 0
 outer loop
  vertex -29.6593 -2.58819 0
  vertex -29.6593 -2.58819 20
  vertex -30 -1.22465E-15 20
 endloop
endfacet
facet normal -0.996214 0.0869338 0
 outer loop
  vertex -30 1.22465E-15 0
  vertex -30 -1.22465E-15 20
  vertex -29.6593 2.58819 20
 endloop
endfacet
facet normal -0.939769 0.341811 0
 outer loop
  vertex -29.6593 2.58819 0
  vertex -29.6593 2.58819 20
  vertex -28.6603 5 20
 endloop
endfacet
facet normal -0.81928 0.573394 0
 outer loop
  vertex -28.6603 5 0
  vertex -28.6603 5 20
  vertex -27.0711 7.07107 20
 endloop
endfacet
facet normal -0.642958 0.765901 0
 outer loop
  vertex -27.0711 7.07107 0
  vertex -27.0711 7.07107 20
  vertex -25 8.66025 20
 endloop
endfacet
facet normal -0.42282 0.906214 0
 outer loop
  vertex -25 8.66025 0
  vertex -25 8.66025 20
  vertex -22.5882 9.65926 20
 endloop
endfacet
facet normal -0.173868 0.984769 0
 outer loop
  vertex -22.5882 9.65926 0
  vertex -22.5882 9.65926 20
  vertex -20 10 20
 endloop
endfacet
facet normal -0.0869338 0.996214 0
 outer loop
  vertex -20 10 0
  vertex -22.5882 9.65926 0
  vertex -20 10 20
 endloop
endfacet
facet normal -0.341811 0.939769 0
 outer loop
  vertex -22.5882 9.65926 0
  vertex -25 8.66025 0
  vertex -22.5882 9.65926 20
 endloop
endfacet
facet normal -0.573394 0.81928 0
 outer loop
  vertex -25 8.66025 0
  vertex -27.0711 7.07107 0
  vertex -25 8.66025 20
 endloop
endfacet
facet normal -0.765901 0.642958 0
 outer loop
  vertex -27.0711 7.07107 0
  vertex -28.6603 5 0
  vertex -27.0711 7.07107 20
 endloop
endfacet
facet normal -0.906214 0.42282 0
 outer loop
  vertex -28.6603 5 0
  vertex -29.6593 2.58819 0
  vertex -28.6603 5 20
 endloop
endfacet
facet normal -0.984769 0.173868 0
 outer loop
  vertex -29.6593 2.58819 0
  vertex -30 1.22465E-15 0
  vertex -29.6593 2.58819 20
 endloop
endfacet
facet normal -0.996214 -0.0869338 0
 outer loop
  vertex -30 1.22465E-15 0
  vertex -29.6593 -2.58819 0
  vertex -30 -1.22465E-15 20
 endloop
endfacet
facet normal -0.939769 -0.341811 0
 outer loop
  vertex -29.6593 -2.58819 0
  vertex -28.6603 -5 0
  vertex -29.6593 -2.58819 20
 endloop
endfacet
facet normal -0.81928 -0.573394 0
 outer loop
  vertex -28.6603 -5 0
  vertex -27.0711 -7.07107 0
  vertex -28.6603 -5 20
 endloop
endfacet
facet normal -0.642958 -0.765901 0
 outer loop
  vertex -27.0711 -7.07107 0
  vertex -25 -8.66025 0
  vertex -27.0711 -7.07107 20
 endloop
endfacet
facet normal -0.42282 -0.906214 0
 outer loop
  vertex -25 -8.66025 0
  vertex -22.5882 -9.65926 0
  vertex -25 -8.66025 20
 endloop
endfacet
facet normal 0 0 -1
 outer loop
  vertex 2.58819 -9.65926 0
  vertex 0 -10 0
  vertex 0 -5 0
 endloop
endfacet
facet normal 0 0 -1
 outer loop
  vertex 1.91342 -4.6194 0
  vertex 2.58819 -9.65926 0
  vertex 0 -5 0
 endloop
endfacet
facet normal 0 0 -1
 outer loop
  vertex 1.91342 -4.6194 0
  vertex 5 -8.66025 0
  vertex 2.58819 -9.65926 0
 endloop
endfacet
facet normal 0 0 -1
 outer loop
  vertex 1.91342 -4.6194 0
  vertex 3.53553 -3.53553 0
  vertex 5 -8.66025 0
 endloop
endfacet
facet normal 0 0 -1
 outer loop
  vertex 5 -8.66025 0
  vertex 3.53553 -3.53553 0
  vertex 7.07107 -7.07107 0
 endloop
endfacet
facet normal 0 0 -1
 outer loop
  vertex 7.07107 -7.07107 0
  vertex 3.53553 -3.53553 0
  vertex 8.66025 -5 0
 endloop
endfacet
facet normal 0 0 -1
 outer loop
  vertex 8.66025 -5 0
  vertex 3.53553 -3.53553 0
  vertex 4.6194 -1.91342 0
 endloop
endfacet
facet normal 0 0 -1
 outer loop
  vertex 9.65926 -2.58819 0
  vertex 4.6194 -1.91342 0
  vertex 5 0 0
 endloop
endfacet
facet normal 0 0 -1
 outer loop
  vertex 10 0 0
  vertex 5 0 0
  vertex 9.65926 2.58819 0
 endloop
endfacet
facet normal 0 0 -1
 outer loop
  vertex 10 0 0
  vertex 9.65926 -2.58819 0
  vertex 5 0 0
 endloop
endfacet
facet normal 0 0 -1
 outer loop
  vertex 5 0 0
  vertex 4.6194 1.91342 0
  vertex 9.65926 2.58819 0
 endloop
endfacet
facet normal 0 0 -1
 outer loop
  vertex 9.65926 2.58819 0
  vertex 4.6194 1.91342 0
  vertex 8.66025 5 0
 endloop
endfacet
facet normal 0 0 -1
 outer loop
  vertex 8.66025 5 0
  vertex 4.6194 1.91342 0
  vertex 3.53553 3.53553 0
 endloop
endfacet
facet normal 0 0 -1
 outer loop
  vertex 7.07107 7.07107 0
  vertex 3.53553 3.53553 0
  vertex 5 8.66025 0
 endloop
endfacet
facet normal 0 0 -1
 outer loop
  vertex 7.07107 7.07107 0
  vertex 8.66025 5 0
  vertex 3.53553 3.53553 0
 endloop
endfacet
facet normal 0 0 -1
 outer loop
  vertex 3.53553 3.53553 0
  vertex 1.91342 4.6194 0
  vertex 5 8.66025 0
 endloop
endfacet
facet normal 0 0 -1
 outer loop
  vertex 5 8.66025 0
  vertex 1.91342 4.6194 0
  vertex 2.58819 9.65926 0
 endloop
endfacet
facet normal 0 0 -1
 outer loop
  vertex 2.58819 9.65926 0
  vertex 1.91342 4.6194 0
  vertex 0 5 0
 endloop
endfacet
facet normal 0 0 -1
 outer loop
  vertex 0 10 0
  vertex 0 5 0
  vertex -20 5 0
 endloop
endfacet
facet normal 0 0 -1
 outer loop
  vertex -20 10 0
  vertex -20 5 0
  vertex -22.5882 9.65926 0
 endloop
endfacet
facet normal 0 0 -1
 outer loop
  vertex -20 10 0
  vertex 0 10 0
  vertex -20 5 0
 endloop
endfacet
facet normal 0 0 -1
 outer loop
  vertex -20 5 0
  vertex -21.9134 4.6194 0
  vertex -22.5882 9.65926 0
 endloop
endfacet
facet normal 0 0 -1
 outer loop
  vertex -22.5882 9.65926 0
  vertex -21.9134 4.6194 0
  vertex -25 8.66025 0
 endloop
endfacet
facet normal 0 0 -1
 outer loop
  vertex -25 8.66025 0
  vertex -21.9134 4.6194 0
  vertex -23.5355 3.53553 0
 endloop
endfacet
facet normal 0 0 -1
 outer loop
  vertex -27.0711 7.07107 0
  vertex -23.5355 3.53553 0
  vertex -28.6603 5 0
 endloop
endfacet
facet normal 0 0 -1
 outer loop
  vertex -27.0711 7.07107 0
  vertex -25 8.66025 0
  vertex -23.5355 3.53553 0
 endloop
endfacet
facet normal 0 0 -1
 outer loop
  vertex -23.5355 3.53553 0
  vertex -24.6194 1.91342 0
  vertex -28.6603 5 0
 endloop
endfacet
facet normal 0 0 -1
 outer loop
  vertex -28.6603 5 0
  vertex -24.6194 1.91342 0
  vertex -29.6593 2.58819 0
 endloop
endfacet
facet normal 0 0 -1
 outer loop
  vertex -29.6593 2.58819 0
  vertex -24.6194 1.91342 0
  vertex -25 6.12323E-16 0
 endloop
endfacet
facet normal 0 0 -1
 outer loop
  vertex -30 1.22465E-15 0
  vertex -25 6.12323E-16 0
  vertex -29.6593 -2.58819 0
 endloop
endfacet
facet normal 0 0 -1
 outer loop
  vertex -30 1.22465E-15 0
  vertex -29.6593 2.58819 0
  vertex -25 6.12323E-16 0
 endloop
endfacet
facet normal 0 0 -1
 outer loop
  vertex -25 6.12323E-16 0
  vertex -24.6194 -1.91342 0
  vertex -29.6593 -2.58819 0
 endloop
endfacet
facet normal 0 0 -1
 outer loop
  vertex -29.6593 -2.58819 0
  vertex -24.6194 -1.91342 0
  vertex -28.6603 -5 0
 endloop
endfacet
facet normal 0 0 -1
 outer loop
  vertex -28.6603 -5 0
  vertex -24.6194 -1.91342 0
  vertex -23.5355 -3.53553 0
 endloop
endfacet
facet normal 0 0 -1
 outer loop
  vertex -27.0711 -7.07107 0
  vertex -23.5355 -3.53553 0
  vertex -25 -8.66025 0
 endloop
endfacet
facet normal 0 0 -1
 outer loop
  vertex -27.0711 -7.07107 0
  vertex -28.6603 -5 0
  vertex -23.5355 -3.53553 0
 endloop
endfacet
facet normal 0 0 -1
 outer loop
  vertex -23.5355 -3.53553 0
  vertex -21.9134 -4.6194 0
  vertex -25 -8.66025 0
 endloop
endfacet
facet normal 0 0 -1
 outer loop
  vertex -25 -8.66025 0
  vertex -21.9134 -4.6194 0
  vertex -22.5882 -9.65926 0
 endloop
endfacet
facet normal 0 0 -1
 outer loop
  vertex -22.5882 -9.65926 0
  vertex -21.9134 -4.6194 0
  vertex -20 -5 0
 endloop
endfacet
facet normal 0 0 -1
 outer loop
  vertex -20 -10 0
  vertex -20 -5 0
  vertex 0 -5 0
 endloop
endfacet
facet normal 0 0 -1
 outer loop
  vertex 0 -10 0
  vertex -20 -10 0
  vertex 0 -5 0
 endloop
endfacet
facet normal 0 0 -1
 outer loop
  vertex -20 -10 0
  vertex -22.5882 -9.65926 0
  vertex -20 -5 0
 endloop
endfacet
facet normal 0 0 -1
 outer loop
  vertex 0 10 0
  vertex 2.58819 9.65926 0
  vertex 0 5 0
 endloop
endfacet
facet normal 0 0 -1
 outer loop
  vertex 9.65926 -2.58819 0
  vertex 8.66025 -5 0
  vertex 4.6194 -1.91342 0
 endloop
endfacet
endsolid Bushings
